<svg width="12" height="14" viewBox="0 0 12 14" fill="none" xmlns="http://www.w3.org/2000/svg">
<path fill-rule="evenodd" clip-rule="evenodd" d="M1.33332 12.3333H10.6667C10.8435 12.3333 11.013 12.4036 11.1381 12.5286C11.2631 12.6536 11.3333 12.8232 11.3333 13C11.3333 13.1768 11.2631 13.3464 11.1381 13.4714C11.013 13.5964 10.8435 13.6667 10.6667 13.6667H1.33332C1.15651 13.6667 0.986943 13.5964 0.861919 13.4714C0.736895 13.3464 0.666656 13.1768 0.666656 13C0.666656 12.8232 0.736895 12.6536 0.861919 12.5286C0.986943 12.4036 1.15651 12.3333 1.33332 12.3333ZM0.666656 8.99999L7.33332 2.33333L9.33332 4.33333L2.66666 11H0.666656V8.99999ZM7.99999 1.66666L9.33332 0.333328L11.3333 2.33333L9.99932 3.66733L7.99999 1.66666Z" fill="#70AE6E"/>
</svg>
