<svg width="12" height="14" viewBox="0 0 12 14" fill="none" xmlns="http://www.w3.org/2000/svg">
<path d="M0.666667 2.33333H2.66667V1.66666C2.66667 1.31304 2.80714 0.973901 3.05719 0.723852C3.30724 0.473804 3.64638 0.333328 4 0.333328H8C8.35362 0.333328 8.69276 0.473804 8.94281 0.723852C9.19286 0.973901 9.33333 1.31304 9.33333 1.66666V2.33333H11.3333C11.5101 2.33333 11.6797 2.40357 11.8047 2.52859C11.9298 2.65361 12 2.82318 12 2.99999C12 3.17681 11.9298 3.34637 11.8047 3.4714C11.6797 3.59642 11.5101 3.66666 11.3333 3.66666H10.6667V12.3333C10.6667 12.6869 10.5262 13.0261 10.2761 13.2761C10.0261 13.5262 9.68696 13.6667 9.33333 13.6667H2.66667C2.31304 13.6667 1.97391 13.5262 1.72386 13.2761C1.47381 13.0261 1.33333 12.6869 1.33333 12.3333V3.66666H0.666667C0.489856 3.66666 0.320286 3.59642 0.195262 3.4714C0.0702379 3.34637 0 3.17681 0 2.99999C0 2.82318 0.0702379 2.65361 0.195262 2.52859C0.320286 2.40357 0.489856 2.33333 0.666667 2.33333ZM2.66667 3.66666V12.3333H9.33333V3.66666H2.66667ZM4 2.33333H8V1.66666H4V2.33333ZM4 4.99999H5.33333V11H4V4.99999ZM6.66667 4.99999H8V11H6.66667V4.99999Z" fill="#FE5F55"/>
</svg>
